# xmcd
#
# Track frame offsets: 
#        150
#        32932
#        55605
#        67827
#        77528
#        101500
#        120611
#        148223
#
# Disc length: 2118 seconds
#
# Revision: 0
# Processed by: cddbd v1.5.2PL0 Copyright (c) Steve Scherf et al.
# Submitted via: ExactAudioCopy v1.0b3
#
DISCID=64084408
DTITLE=Reverend Gary Davis - An Afternoon With Reverend Gary Davis
DYEAR=1964
DGENRE=Blues
TTITLE0=Cincinnati Slow Drag
TTITLE1=Chase - Harmonica Solo
TTITLE2=Candyman
TTITLE3=Banjo Instrumental
TTITLE4=Maple Leaf Rag
TTITLE5=I Know You'll Miss Me When I'm Gone
TTITLE6=Guitar Blues
TTITLE7=Banjo Instrumental 2
EXTD=
EXTT0=
EXTT1=
EXTT2=
EXTT3=
EXTT4=
EXTT5=
EXTT6=
EXTT7=
PLAYORDER=
